<svg width="33" height="33" viewBox="0 0 33 33" fill="none" xmlns="http://www.w3.org/2000/svg">
<path opacity="0.1" fill-rule="evenodd" clip-rule="evenodd" d="M19.3043 16.5813C19.3043 14.7893 17.8576 13.3317 16.0547 13.3317V12.1826C18.4948 12.1826 20.4534 14.1573 20.4534 16.5813C20.4534 19.0066 18.48 20.98 16.0547 20.98V19.8309C17.8454 19.8309 19.3043 18.372 19.3043 16.5813Z" fill="white"/>
<path fill-rule="evenodd" clip-rule="evenodd" d="M8.92544 9.17233C6.60945 8.55129 4.24158 9.93567 3.63346 12.2388L3.63327 12.2395C3.01222 14.5555 4.39661 16.9233 6.69972 17.5315C6.80199 17.5585 6.86301 17.6633 6.836 17.7655C6.809 17.8678 6.7042 17.9288 6.60194 17.9018C4.0946 17.2398 2.58726 14.6621 3.26321 12.1406C3.92544 9.63339 6.50315 8.12621 9.02464 8.80237C9.12681 8.82976 9.18742 8.93479 9.16002 9.03695C9.13263 9.13912 9.0276 9.19973 8.92544 9.17233Z" fill="white"/>
<path fill-rule="evenodd" clip-rule="evenodd" d="M9.74741 20.7426C9.8222 20.8174 9.8222 20.9387 9.74741 21.0135C8.94387 21.817 8.94387 23.1281 9.74741 23.9316C10.551 24.7352 11.8621 24.7352 12.6656 23.9316C12.7404 23.8569 12.8616 23.8569 12.9364 23.9316C13.0112 24.0064 13.0112 24.1277 12.9364 24.2025C11.9833 25.1556 10.4297 25.1556 9.47656 24.2025C8.52344 23.2494 8.52344 21.6957 9.47656 20.7426C9.55136 20.6678 9.67262 20.6678 9.74741 20.7426Z" fill="white"/>
<path fill-rule="evenodd" clip-rule="evenodd" d="M11.8258 9.35288C11.0222 8.54934 9.71111 8.54934 8.90757 9.35288C8.10402 10.1564 8.10402 11.4675 8.90757 12.2711C8.98236 12.3459 8.98236 12.4671 8.90757 12.5419C8.83277 12.6167 8.71151 12.6167 8.63672 12.5419C7.68359 11.5888 7.68359 10.0352 8.63672 9.08203C9.58985 8.12891 11.1435 8.12891 12.0966 9.08203C12.1714 9.15683 12.1714 9.27809 12.0966 9.35288C12.0218 9.42767 11.9005 9.42767 11.8258 9.35288Z" fill="white"/>
<path fill-rule="evenodd" clip-rule="evenodd" d="M7.65363 24.0923C7.75915 24.0997 7.83868 24.1912 7.83127 24.2967C7.72767 25.7731 8.37506 27.2607 9.68166 28.1663L9.6819 28.1664C11.6358 29.5251 14.3402 29.046 15.6985 27.0797C15.7586 26.9927 15.8779 26.9709 15.9649 27.031C16.0519 27.0911 16.0737 27.2104 16.0136 27.2974C14.5342 29.4391 11.5902 29.9599 9.46322 28.4809C8.0404 27.4947 7.33658 25.8744 7.44918 24.2699C7.45658 24.1644 7.54812 24.0849 7.65363 24.0923Z" fill="white"/>
<path fill-rule="evenodd" clip-rule="evenodd" d="M4.70536 16.4047C4.78015 16.4795 4.78015 16.6008 4.70536 16.6756C3.00997 18.371 3.00997 21.1009 4.70536 22.7963C5.97378 24.0647 7.82401 24.3882 9.3897 23.7542C9.48774 23.7145 9.5994 23.7617 9.6391 23.8598C9.6788 23.9578 9.63151 24.0695 9.53347 24.1092C7.82905 24.7994 5.8146 24.4472 4.43451 23.0671C2.58954 21.2222 2.58954 18.2497 4.43451 16.4047C4.5093 16.3299 4.63057 16.3299 4.70536 16.4047Z" fill="white"/>
<path fill-rule="evenodd" clip-rule="evenodd" d="M8.32793 4.56552C10.3207 3.24593 12.9988 3.78946 14.3185 5.78209C14.377 5.87027 14.4958 5.89441 14.584 5.836C14.6722 5.77759 14.6963 5.65876 14.6379 5.57057C13.2011 3.40137 10.2851 2.80976 8.11601 4.24645L8.11601 4.24645L8.11522 4.24698C6.49641 5.33088 5.74951 7.2322 6.08768 9.03578C6.10718 9.13974 6.20726 9.20822 6.31122 9.18872C6.41518 9.16923 6.48365 9.06915 6.46416 8.96519C6.15374 7.30963 6.83906 5.56265 8.32793 4.56552Z" fill="white"/>
<path fill-rule="evenodd" clip-rule="evenodd" d="M26.1964 15.3793C26.2335 15.4783 26.1833 15.5887 26.0842 15.6258L23.0168 16.7744C22.9953 16.7824 22.9726 16.7866 22.9496 16.7866H20.6525C20.5467 16.7866 20.4609 16.7008 20.4609 16.595C20.4609 16.4893 20.5467 16.4035 20.6525 16.4035H22.915L25.9499 15.2671C26.0489 15.23 26.1593 15.2802 26.1964 15.3793Z" fill="white"/>
<path fill-rule="evenodd" clip-rule="evenodd" d="M15.9795 21.0136C16.0767 20.9719 16.1893 21.017 16.2309 21.1142L18.4784 26.3627H19.879C19.9848 26.3627 20.0705 26.4484 20.0705 26.5542C20.0705 26.66 19.9848 26.7457 19.879 26.7457H18.352C18.2754 26.7457 18.2061 26.7 18.176 26.6296L15.8788 21.265C15.8372 21.1678 15.8822 21.0552 15.9795 21.0136Z" fill="white"/>
<path fill-rule="evenodd" clip-rule="evenodd" d="M22.4242 9.45941C22.499 9.53421 22.499 9.65547 22.4242 9.73026L19.073 13.0815C18.9982 13.1562 18.877 13.1562 18.8022 13.0815C18.7274 13.0067 18.7274 12.8854 18.8022 12.8106L22.1534 9.45941C22.2282 9.38462 22.3494 9.38462 22.4242 9.45941Z" fill="white"/>
<path fill-rule="evenodd" clip-rule="evenodd" d="M16.0548 7.2002C16.1606 7.2002 16.2463 7.28594 16.2463 7.39171V11.9996C16.2463 12.1054 16.1606 12.1911 16.0548 12.1911C15.949 12.1911 15.8633 12.1054 15.8633 11.9996V7.39171C15.8633 7.28594 15.949 7.2002 16.0548 7.2002Z" fill="white"/>
<path fill-rule="evenodd" clip-rule="evenodd" d="M27.5427 13.719C26.8051 13.719 26.2073 14.3169 26.2073 15.0544C26.2073 15.792 26.8051 16.3898 27.5427 16.3898C28.2802 16.3898 28.8781 15.792 28.8781 15.0544C28.8781 14.3169 28.2802 13.719 27.5427 13.719ZM25.8242 15.0544C25.8242 14.1053 26.5936 13.3359 27.5427 13.3359C28.4918 13.3359 29.2612 14.1053 29.2612 15.0544C29.2612 16.0035 28.4918 16.7729 27.5427 16.7729C26.5936 16.7729 25.8242 16.0035 25.8242 15.0544Z" fill="white"/>
<path fill-rule="evenodd" clip-rule="evenodd" d="M22.9489 6.82737C22.2114 6.82737 21.6135 7.42527 21.6135 8.16281C21.6135 8.90035 22.2114 9.49824 22.9489 9.49824C23.6865 9.49824 24.2844 8.90035 24.2844 8.16281C24.2844 7.42527 23.6865 6.82737 22.9489 6.82737ZM21.2305 8.16281C21.2305 7.21373 21.9999 6.44434 22.9489 6.44434C23.898 6.44434 24.6674 7.21373 24.6674 8.16281C24.6674 9.1119 23.898 9.88127 22.9489 9.88127C21.9999 9.88127 21.2305 9.1119 21.2305 8.16281Z" fill="white"/>
<path fill-rule="evenodd" clip-rule="evenodd" d="M16.0583 4.52952C15.3208 4.52952 14.7229 5.12742 14.7229 5.86496C14.7229 6.6025 15.3208 7.20038 16.0583 7.20038C16.7959 7.20038 17.3937 6.6025 17.3937 5.86496C17.3937 5.12742 16.7959 4.52952 16.0583 4.52952ZM14.3398 5.86496C14.3398 4.91588 15.1092 4.14648 16.0583 4.14648C17.0074 4.14648 17.7768 4.91588 17.7768 5.86496C17.7768 6.81405 17.0074 7.58342 16.0583 7.58342C15.1092 7.58342 14.3398 6.81405 14.3398 5.86496Z" fill="white"/>
<path fill-rule="evenodd" clip-rule="evenodd" d="M25.2419 20.6233C24.5044 20.6233 23.9065 21.2212 23.9065 21.9587C23.9065 22.6963 24.5044 23.2942 25.2419 23.2942C25.9794 23.2942 26.5773 22.6963 26.5773 21.9587C26.5773 21.2212 25.9794 20.6233 25.2419 20.6233ZM23.5234 21.9587C23.5234 21.0096 24.2928 20.2402 25.2419 20.2402C26.191 20.2402 26.9604 21.0096 26.9604 21.9587C26.9604 22.9078 26.191 23.6772 25.2419 23.6772C24.2928 23.6772 23.5234 22.9078 23.5234 21.9587Z" fill="white"/>
<path fill-rule="evenodd" clip-rule="evenodd" d="M21.4216 25.219C20.6841 25.219 20.0862 25.8169 20.0862 26.5544C20.0862 27.292 20.6841 27.8899 21.4216 27.8899C22.1591 27.8899 22.757 27.292 22.757 26.5544C22.757 25.8169 22.1591 25.219 21.4216 25.219ZM19.7031 26.5544C19.7031 25.6053 20.4725 24.8359 21.4216 24.8359C22.3707 24.8359 23.1401 25.6053 23.1401 26.5544C23.1401 27.5035 22.3707 28.2729 21.4216 28.2729C20.4725 28.2729 19.7031 27.5035 19.7031 26.5544Z" fill="white"/>
<path fill-rule="evenodd" clip-rule="evenodd" d="M19.3743 19.6125C19.4541 19.5431 19.575 19.5514 19.6445 19.6311L21.5061 21.768H23.7161C23.8219 21.768 23.9076 21.8538 23.9076 21.9596C23.9076 22.0653 23.8219 22.1511 23.7161 22.1511H21.4189C21.3636 22.1511 21.3109 22.1271 21.2745 22.0854L19.3557 19.8828C19.2862 19.803 19.2946 19.682 19.3743 19.6125Z" fill="white"/>
<path fill-rule="evenodd" clip-rule="evenodd" d="M16.0554 12.1916C13.6238 12.1916 11.6526 14.1629 11.6526 16.5945C11.6526 19.0261 13.6238 20.9973 16.0554 20.9973C18.487 20.9973 20.4583 19.0261 20.4583 16.5945C20.4583 14.1629 18.487 12.1916 16.0554 12.1916ZM11.2695 16.5945C11.2695 13.9513 13.4122 11.8086 16.0554 11.8086C18.6986 11.8086 20.8413 13.9513 20.8413 16.5945C20.8413 19.2376 18.6986 21.3804 16.0554 21.3804C13.4122 21.3804 11.2695 19.2376 11.2695 16.5945Z" fill="white"/>
<path opacity="0.4" fill-rule="evenodd" clip-rule="evenodd" d="M16.624 16.5812C16.624 16.2668 16.3716 16.0119 16.0547 16.0119V14.0967C17.4404 14.0967 18.5392 15.2201 18.5392 16.5812C18.5392 17.9479 17.4214 19.0658 16.0547 19.0658V17.1506C16.3636 17.1506 16.624 16.8902 16.624 16.5812Z" fill="white"/>
<path opacity="0.1" fill-rule="evenodd" clip-rule="evenodd" d="M10.1172 16.5944C10.1172 13.6184 12.588 10.6553 16.0563 10.6553V11.8044C13.2817 11.8044 11.2663 14.1924 11.2663 16.5944C11.2663 17.8171 11.6724 19.0169 12.4606 19.9034C13.2394 20.7793 14.4212 21.3845 16.0563 21.3845V22.5336C14.1106 22.5336 12.6101 21.801 11.6018 20.6669C10.6029 19.5434 10.1172 18.0608 10.1172 16.5944Z" fill="white"/>
</svg>
