<svg width="29" height="29" viewBox="0 0 29 29" fill="none" xmlns="http://www.w3.org/2000/svg">
<path opacity="0.1" fill-rule="evenodd" clip-rule="evenodd" d="M14.552 13.0171C13.7027 13.0171 13.0141 13.7056 13.0141 14.5549C13.0141 15.4043 13.7027 16.0928 14.552 16.0928C15.4013 16.0928 16.0898 15.4043 16.0898 14.5549C16.0898 13.7056 15.4013 13.0171 14.552 13.0171ZM11.9883 14.5549C11.9883 13.139 13.1361 11.9912 14.552 11.9912C15.9679 11.9912 17.1157 13.139 17.1157 14.5549C17.1157 15.9708 15.9679 17.1186 14.552 17.1186C13.1361 17.1186 11.9883 15.9708 11.9883 14.5549Z" fill="white"/>
<path fill-rule="evenodd" clip-rule="evenodd" d="M6.34665 5.16031C5.68822 5.16031 5.15445 5.69408 5.15445 6.35251C5.15445 7.01093 5.68822 7.5447 6.34665 7.5447C7.00507 7.5447 7.53883 7.01094 7.53883 6.35251C7.53883 5.69407 7.00507 5.16031 6.34665 5.16031ZM4.8125 6.35251C4.8125 5.50522 5.49936 4.81836 6.34665 4.81836C7.19393 4.81836 7.88078 5.50523 7.88078 6.35251C7.88078 7.19979 7.19393 7.88665 6.34665 7.88665C5.49936 7.88665 4.8125 7.19979 4.8125 6.35251Z" fill="white"/>
<path fill-rule="evenodd" clip-rule="evenodd" d="M22.7646 21.5773C22.1062 21.5773 21.5724 22.1111 21.5724 22.7695C21.5724 23.4279 22.1062 23.9617 22.7646 23.9617C23.423 23.9617 23.9568 23.4279 23.9568 22.7695C23.9568 22.1111 23.423 21.5773 22.7646 21.5773ZM21.2305 22.7695C21.2305 21.9222 21.9173 21.2354 22.7646 21.2354C23.6119 21.2354 24.2988 21.9222 24.2988 22.7695C24.2988 23.6168 23.6119 24.3036 22.7646 24.3036C21.9173 24.3036 21.2305 23.6168 21.2305 22.7695Z" fill="white"/>
<path fill-rule="evenodd" clip-rule="evenodd" d="M14.5498 11.3127C12.7587 11.3127 11.3068 12.7646 11.3068 14.5556C11.3068 16.3467 12.7587 17.7986 14.5498 17.7986C16.3408 17.7986 17.7927 16.3467 17.7927 14.5556C17.7927 12.7646 16.3408 11.3127 14.5498 11.3127ZM10.9648 14.5556C10.9648 12.5757 12.5699 10.9707 14.5498 10.9707C16.5297 10.9707 18.1347 12.5757 18.1347 14.5556C18.1347 16.5355 16.5297 18.1406 14.5498 18.1406C12.5699 18.1406 10.9648 16.5355 10.9648 14.5556Z" fill="white"/>
<path fill-rule="evenodd" clip-rule="evenodd" d="M16.8665 16.8704C16.9333 16.8036 17.0415 16.8036 17.1083 16.8704L20.8359 20.598C20.9026 20.6648 20.9026 20.773 20.8359 20.8398C20.7691 20.9066 20.6609 20.9066 20.5941 20.8398L16.8665 17.1122C16.7997 17.0454 16.7997 16.9372 16.8665 16.8704Z" fill="white"/>
<path fill-rule="evenodd" clip-rule="evenodd" d="M8.27684 8.28133C8.34371 8.21467 8.45197 8.21484 8.51863 8.28172L12.2342 12.0093C12.3008 12.0762 12.3006 12.1845 12.2338 12.2511C12.1669 12.3178 12.0586 12.3176 11.992 12.2507L8.27644 8.52312C8.20978 8.45624 8.20996 8.34799 8.27684 8.28133Z" fill="white"/>
<path fill-rule="evenodd" clip-rule="evenodd" d="M6.34665 21.5773C5.68822 21.5773 5.15445 22.1111 5.15445 22.7695C5.15445 23.4279 5.68822 23.9617 6.34665 23.9617C7.00507 23.9617 7.53883 23.4279 7.53883 22.7695C7.53883 22.1111 7.00507 21.5773 6.34665 21.5773ZM4.8125 22.7695C4.8125 21.9222 5.49936 21.2354 6.34665 21.2354C7.19393 21.2354 7.88078 21.9222 7.88078 22.7695C7.88078 23.6168 7.19393 24.3036 6.34665 24.3036C5.49936 24.3036 4.8125 23.6168 4.8125 22.7695Z" fill="white"/>
<path fill-rule="evenodd" clip-rule="evenodd" d="M22.7646 5.16031C22.1062 5.16031 21.5724 5.69408 21.5724 6.35251C21.5724 7.01093 22.1062 7.5447 22.7646 7.5447C23.423 7.5447 23.9568 7.01093 23.9568 6.35251C23.9568 5.69408 23.423 5.16031 22.7646 5.16031ZM21.2305 6.35251C21.2305 5.50522 21.9173 4.81836 22.7646 4.81836C23.6119 4.81836 24.2988 5.50522 24.2988 6.35251C24.2988 7.19979 23.6119 7.88665 22.7646 7.88665C21.9173 7.88665 21.2305 7.19979 21.2305 6.35251Z" fill="white"/>
<path fill-rule="evenodd" clip-rule="evenodd" d="M20.8359 8.28152C20.9026 8.34829 20.9026 8.45655 20.8359 8.52332L17.1083 12.2509C17.0415 12.3177 16.9333 12.3177 16.8665 12.2509C16.7997 12.1842 16.7997 12.0759 16.8665 12.0091L20.5941 8.28152C20.6609 8.21475 20.7691 8.21475 20.8359 8.28152Z" fill="white"/>
<path fill-rule="evenodd" clip-rule="evenodd" d="M12.2338 16.8702C12.3006 16.9369 12.3008 17.0451 12.2342 17.112L8.51863 20.8396C8.45197 20.9065 8.34371 20.9067 8.27684 20.84C8.20996 20.7733 8.20978 20.6651 8.27644 20.5982L11.992 16.8706C12.0586 16.8037 12.1669 16.8035 12.2338 16.8702Z" fill="white"/>
<path opacity="0.4" fill-rule="evenodd" clip-rule="evenodd" d="M14.5501 4.48028C14.2693 4.48028 14.0418 4.70784 14.0418 4.98854C14.0418 5.26925 14.2694 5.49682 14.5501 5.49682C14.8308 5.49682 15.0584 5.26926 15.0584 4.98854C15.0584 4.70783 14.8308 4.48028 14.5501 4.48028ZM12.332 4.98854C12.332 3.76352 13.3251 2.77051 14.5501 2.77051C15.7751 2.77051 16.7681 3.76353 16.7681 4.98854C16.7681 6.21352 15.7751 7.20659 14.5501 7.20659C13.3251 7.20659 12.332 6.21353 12.332 4.98854Z" fill="white"/>
<path opacity="0.4" fill-rule="evenodd" clip-rule="evenodd" d="M14.5501 23.6248C14.2694 23.6248 14.0418 23.8524 14.0418 24.1331C14.0418 24.4138 14.2693 24.6414 14.5501 24.6414C14.8308 24.6414 15.0584 24.4138 15.0584 24.1331C15.0584 23.8524 14.8308 23.6248 14.5501 23.6248ZM12.332 24.1331C12.332 22.9081 13.3251 21.915 14.5501 21.915C15.7751 21.915 16.7681 22.9081 16.7681 24.1331C16.7681 25.3581 15.7751 26.3511 14.5501 26.3511C13.3251 26.3511 12.332 25.3581 12.332 24.1331Z" fill="white"/>
<path opacity="0.4" fill-rule="evenodd" clip-rule="evenodd" d="M24.1282 14.0467C23.8475 14.0467 23.6199 14.2743 23.6199 14.555C23.6199 14.8357 23.8475 15.0633 24.1282 15.0633C24.4089 15.0633 24.6365 14.8357 24.6365 14.555C24.6365 14.2742 24.4089 14.0467 24.1282 14.0467ZM21.9102 14.555C21.9102 13.33 22.9032 12.3369 24.1282 12.3369C25.3532 12.3369 26.3463 13.33 26.3463 14.555C26.3463 15.78 25.3532 16.773 24.1282 16.773C22.9032 16.773 21.9102 15.78 21.9102 14.555Z" fill="white"/>
<path opacity="0.4" fill-rule="evenodd" clip-rule="evenodd" d="M4.98367 14.0467C4.70296 14.0467 4.4754 14.2742 4.4754 14.555C4.4754 14.8357 4.70296 15.0633 4.98367 15.0633C5.26438 15.0633 5.49195 14.8357 5.49195 14.555C5.49195 14.2743 5.26438 14.0467 4.98367 14.0467ZM2.76562 14.555C2.76562 13.33 3.75866 12.3369 4.98367 12.3369C6.20866 12.3369 7.20173 13.33 7.20173 14.555C7.20173 15.78 6.20866 16.773 4.98367 16.773C3.75866 16.773 2.76562 15.78 2.76562 14.555Z" fill="white"/>
</svg>
