<svg width="27" height="27" viewBox="0 0 27 27" fill="none" xmlns="http://www.w3.org/2000/svg">
<g id="Group 14">
<path id="Vector" opacity="0.1" d="M13.1246 22.2053C18.1381 22.2053 22.2023 18.141 22.2023 13.1275C22.2023 8.11404 18.1381 4.0498 13.1246 4.0498C8.11111 4.0498 4.04688 8.11404 4.04688 13.1275C4.04688 18.141 8.11111 22.2053 13.1246 22.2053Z" fill="white"/>
<path id="Vector (Stroke)" fill-rule="evenodd" clip-rule="evenodd" d="M13.1269 0.324077C6.05612 0.324077 0.324077 6.05612 0.324077 13.1269C0.324077 20.1978 6.05612 25.9298 13.1269 25.9298C20.1978 25.9298 25.9298 20.1978 25.9298 13.1269C25.9298 6.05612 20.1978 0.324077 13.1269 0.324077ZM0 13.1269C0 5.87713 5.87713 0 13.1269 0C20.3768 0 26.2539 5.87713 26.2539 13.1269C26.2539 20.3768 20.3768 26.2539 13.1269 26.2539C5.87713 26.2539 0 20.3768 0 13.1269Z" fill="white"/>
<path id="Vector (Stroke)_2" fill-rule="evenodd" clip-rule="evenodd" d="M21.0173 5.23789C21.0806 5.30117 21.0806 5.40377 21.0173 5.46705L10.6477 15.8367C10.5844 15.9 10.4818 15.9 10.4186 15.8367C10.3553 15.7734 10.3553 15.6708 10.4186 15.6075L20.7882 5.23789C20.8515 5.17461 20.9541 5.17461 21.0173 5.23789Z" fill="white"/>
<path id="Vector (Stroke)_3" opacity="0.4" fill-rule="evenodd" clip-rule="evenodd" d="M13.1295 12.6458C12.8634 12.6458 12.6478 12.8615 12.6478 13.1275C12.6478 13.3936 12.8634 13.6092 13.1295 13.6092C13.3955 13.6092 13.6112 13.3936 13.6112 13.1275C13.6112 12.8615 13.3955 12.6458 13.1295 12.6458ZM11.0273 13.1275C11.0273 11.9665 11.9685 11.0254 13.1295 11.0254C14.2904 11.0254 15.2316 11.9665 15.2316 13.1275C15.2316 14.2885 14.2904 15.2296 13.1295 15.2296C11.9685 15.2296 11.0273 14.2885 11.0273 13.1275Z" fill="white"/>
<path id="Vector (Stroke)_4" opacity="0.4" fill-rule="evenodd" clip-rule="evenodd" d="M13.1965 4.91631C8.65458 4.91631 4.929 8.62832 4.929 13.1267H3.30859C3.30859 7.7241 7.76898 3.2959 13.1965 3.2959C15.8107 3.2959 18.3256 4.32894 20.1814 6.17227L19.0394 7.32193C17.4882 5.78112 15.3842 4.91631 13.1965 4.91631Z" fill="white"/>
</g>
</svg>
