<svg width="27" height="27" viewBox="0 0 27 27" fill="none" xmlns="http://www.w3.org/2000/svg">
<path opacity="0.1" fill-rule="evenodd" clip-rule="evenodd" d="M13.4223 3.87894C8.05996 3.87894 3.71292 8.22597 3.71292 13.5883C3.71292 18.9506 8.05996 23.2977 13.4223 23.2977C18.7846 23.2977 23.1317 18.9506 23.1317 13.5883C23.1317 8.22597 18.7846 3.87894 13.4223 3.87894ZM2.75781 13.5883C2.75781 7.69847 7.53247 2.92383 13.4223 2.92383C19.3121 2.92383 24.0868 7.69847 24.0868 13.5883C24.0868 19.4781 19.3121 24.2528 13.4223 24.2528C7.53247 24.2528 2.75781 19.4781 2.75781 13.5883Z" fill="white"/>
<path fill-rule="evenodd" clip-rule="evenodd" d="M26.0003 13.588C26.0003 6.64506 20.366 1.01075 13.423 1.01075V0.692383C20.5418 0.692383 26.3187 6.46923 26.3187 13.588C26.3187 20.7068 20.5418 26.4837 13.423 26.4837C6.30419 26.4837 0.527344 20.7068 0.527344 13.588H0.845711C0.845711 20.531 6.48002 26.1653 13.423 26.1653C20.366 26.1653 26.0003 20.531 26.0003 13.588Z" fill="white"/>
<path fill-rule="evenodd" clip-rule="evenodd" d="M13.4225 10.5693C12.9831 10.5693 12.627 10.9255 12.627 11.3648C12.627 11.8042 12.9831 12.1603 13.4225 12.1603C13.8618 12.1603 14.2179 11.8042 14.2179 11.3648C14.2179 10.9255 13.8618 10.5693 13.4225 10.5693ZM12.3086 11.3648C12.3086 10.7497 12.8073 10.251 13.4225 10.251C14.0376 10.251 14.5363 10.7497 14.5363 11.3648C14.5363 11.98 14.0376 12.4787 13.4225 12.4787C12.8073 12.4787 12.3086 11.98 12.3086 11.3648Z" fill="white"/>
<path fill-rule="evenodd" clip-rule="evenodd" d="M13.1119 13.1084C12.5035 13.1084 12.002 13.6099 12.002 14.2184V16.8465C12.002 17.0639 12.1798 17.2489 12.4043 17.2489H14.4597C14.6752 17.2489 14.8638 17.0723 14.8733 16.8435V14.2184C14.8733 13.6099 14.3718 13.1084 13.7634 13.1084H13.1119ZM11.6836 14.2184C11.6836 13.4341 12.3277 12.79 13.1119 12.79H13.7634C14.5476 12.79 15.1917 13.4341 15.1917 14.2184V16.8494L15.1916 16.8522C15.1773 17.2511 14.8499 17.5673 14.4597 17.5673H12.4043C11.9999 17.5673 11.6836 17.2356 11.6836 16.8465V14.2184Z" fill="white"/>
<path fill-rule="evenodd" clip-rule="evenodd" d="M6.73495 3.56153C6.29561 3.56153 5.93946 3.91768 5.93946 4.35702C5.93946 4.79636 6.29561 5.15251 6.73495 5.15251C7.17429 5.15251 7.53044 4.79636 7.53044 4.35702C7.53044 3.91768 7.17429 3.56153 6.73495 3.56153ZM5.62109 4.35702C5.62109 3.74185 6.11978 3.24316 6.73495 3.24316C7.35012 3.24316 7.84881 3.74185 7.84881 4.35702C7.84881 4.97219 7.35012 5.47088 6.73495 5.47088C6.11978 5.47088 5.62109 4.97219 5.62109 4.35702Z" fill="white"/>
<path fill-rule="evenodd" clip-rule="evenodd" d="M6.41271 6.11036C5.80428 6.11036 5.30274 6.6119 5.30274 7.22034V9.84849C5.30274 10.0659 5.48063 10.2509 5.70513 10.2509H7.76049C7.98304 10.2509 8.16447 10.0673 8.17411 9.84531V7.22034C8.17411 6.6119 7.67257 6.11036 7.06414 6.11036H6.41271ZM4.98438 7.22034C4.98438 6.43607 5.62845 5.79199 6.41271 5.79199H7.06414C7.8484 5.79199 8.49247 6.43607 8.49247 7.22034V9.85144L8.49237 9.85438C8.47817 10.2377 8.16599 10.5692 7.76049 10.5692H5.70513C5.30067 10.5692 4.98438 10.2376 4.98438 9.84849V7.22034Z" fill="white"/>
<path opacity="0.4" fill-rule="evenodd" clip-rule="evenodd" d="M22.8153 13.5873C22.8153 8.39997 18.6116 4.19635 13.4243 4.19635V2.60449C19.4908 2.60449 24.4071 7.52081 24.4071 13.5873C24.4071 19.6539 19.4908 24.5702 13.4243 24.5702C7.35773 24.5702 2.44141 19.6539 2.44141 13.5873H4.03326C4.03326 18.7747 8.23688 22.9783 13.4243 22.9783C18.6116 22.9783 22.8153 18.7747 22.8153 13.5873Z" fill="white"/>
</svg>
